v 1.0 1.0 0.0
v 1.0 0.95652174949646 0.0
v 1.0 0.9130434989929199 0.0
v 1.0 0.8695651888847351 0.0
v 1.0 0.8260869383811951 0.0
v 1.0 0.782608687877655 0.0
v 1.0 0.739130437374115 0.0
v 1.0 0.695652186870575 0.0
v 1.0 0.6521738767623901 0.0
v 1.0 0.6086956262588501 0.0
v 1.0 0.5652173757553101 0.0
v 1.0 0.52173912525177 0.0
v 1.0 0.47826087474823 0.0
v 1.0 0.43478262424468994 0.0
v 1.0 0.3913043439388275 0.0
v 1.0 0.3478260934352875 0.0
v 1.0 0.30434784293174744 0.0
v 1.0 0.260869562625885 0.0
v 1.0 0.21739131212234497 0.0
v 1.0 0.17391304671764374 0.0
v 1.0 0.1304347813129425 0.0
v 1.0 0.08695652335882187 0.0
v 1.0 0.043478261679410934 0.0
v 1.0 0.0 0.0
v 0.95652174949646 1.0 0.0
v 0.95652174949646 0.95652174949646 0.0
v 0.95652174949646 0.9130434989929199 0.0
v 0.95652174949646 0.8695651888847351 0.0
v 0.95652174949646 0.8260869383811951 0.0
v 0.95652174949646 0.782608687877655 0.0
v 0.95652174949646 0.739130437374115 0.0
v 0.95652174949646 0.695652186870575 0.0
v 0.95652174949646 0.6521738767623901 0.0
v 0.95652174949646 0.6086956262588501 0.0
v 0.95652174949646 0.5652173757553101 0.0
v 0.95652174949646 0.52173912525177 0.0
v 0.95652174949646 0.47826087474823 0.0
v 0.95652174949646 0.43478262424468994 0.0
v 0.95652174949646 0.3913043439388275 0.0
v 0.95652174949646 0.3478260934352875 0.0
v 0.95652174949646 0.30434784293174744 0.0
v 0.95652174949646 0.260869562625885 0.0
v 0.95652174949646 0.21739131212234497 0.0
v 0.95652174949646 0.17391304671764374 0.0
v 0.95652174949646 0.1304347813129425 0.0
v 0.95652174949646 0.08695652335882187 0.0
v 0.95652174949646 0.043478261679410934 0.0
v 0.95652174949646 0.0 0.0
v 0.9130434989929199 1.0 0.0
v 0.9130434989929199 0.95652174949646 0.0
v 0.9130434989929199 0.9130434989929199 0.0
v 0.9130434989929199 0.8695651888847351 0.0
v 0.9130434989929199 0.8260869383811951 0.0
v 0.9130434989929199 0.782608687877655 0.0
v 0.9130434989929199 0.739130437374115 0.0
v 0.9130434989929199 0.695652186870575 0.0
v 0.9130434989929199 0.6521738767623901 0.0
v 0.9130434989929199 0.6086956262588501 0.0
v 0.9130434989929199 0.5652173757553101 0.0
v 0.9130434989929199 0.52173912525177 0.0
v 0.9130434989929199 0.47826087474823 0.0
v 0.9130434989929199 0.43478262424468994 0.0
v 0.9130434989929199 0.3913043439388275 0.0
v 0.9130434989929199 0.3478260934352875 0.0
v 0.9130434989929199 0.30434784293174744 0.0
v 0.9130434989929199 0.260869562625885 0.0
v 0.9130434989929199 0.21739131212234497 0.0
v 0.9130434989929199 0.17391304671764374 0.0
v 0.9130434989929199 0.1304347813129425 0.0
v 0.9130434989929199 0.08695652335882187 0.0
v 0.9130434989929199 0.043478261679410934 0.0
v 0.9130434989929199 0.0 0.0
v 0.8695651888847351 1.0 0.0
v 0.8695651888847351 0.95652174949646 0.0
v 0.8695651888847351 0.9130434989929199 0.0
v 0.8695651888847351 0.8695651888847351 0.0
v 0.8695651888847351 0.8260869383811951 0.0
v 0.8695651888847351 0.782608687877655 0.0
v 0.8695651888847351 0.739130437374115 0.0
v 0.8695651888847351 0.695652186870575 0.0
v 0.8695651888847351 0.6521738767623901 0.0
v 0.8695651888847351 0.6086956262588501 0.0
v 0.8695651888847351 0.5652173757553101 0.0
v 0.8695651888847351 0.52173912525177 0.0
v 0.8695651888847351 0.47826087474823 0.0
v 0.8695651888847351 0.43478262424468994 0.0
v 0.8695651888847351 0.3913043439388275 0.0
v 0.8695651888847351 0.3478260934352875 0.0
v 0.8695651888847351 0.30434784293174744 0.0
v 0.8695651888847351 0.260869562625885 0.0
v 0.8695651888847351 0.21739131212234497 0.0
v 0.8695651888847351 0.17391304671764374 0.0
v 0.8695651888847351 0.1304347813129425 0.0
v 0.8695651888847351 0.08695652335882187 0.0
v 0.8695651888847351 0.043478261679410934 0.0
v 0.8695651888847351 0.0 0.0
v 0.8260869383811951 1.0 0.0
v 0.8260869383811951 0.95652174949646 0.0
v 0.8260869383811951 0.9130434989929199 0.0
v 0.8260869383811951 0.8695651888847351 0.0
v 0.8260869383811951 0.8260869383811951 0.0
v 0.8260869383811951 0.782608687877655 0.0
v 0.8260869383811951 0.739130437374115 0.0
v 0.8260869383811951 0.695652186870575 0.0
v 0.8260869383811951 0.6521738767623901 0.0
v 0.8260869383811951 0.6086956262588501 0.0
v 0.8260869383811951 0.5652173757553101 0.0
v 0.8260869383811951 0.52173912525177 0.0
v 0.8260869383811951 0.47826087474823 0.0
v 0.8260869383811951 0.43478262424468994 0.0
v 0.8260869383811951 0.3913043439388275 0.0
v 0.8260869383811951 0.3478260934352875 0.0
v 0.8260869383811951 0.30434784293174744 0.0
v 0.8260869383811951 0.260869562625885 0.0
v 0.8260869383811951 0.21739131212234497 0.0
v 0.8260869383811951 0.17391304671764374 0.0
v 0.8260869383811951 0.1304347813129425 0.0
v 0.8260869383811951 0.08695652335882187 0.0
v 0.8260869383811951 0.043478261679410934 0.0
v 0.8260869383811951 0.0 0.0
v 0.782608687877655 1.0 0.0
v 0.782608687877655 0.95652174949646 0.0
v 0.782608687877655 0.9130434989929199 0.0
v 0.782608687877655 0.8695651888847351 0.0
v 0.782608687877655 0.8260869383811951 0.0
v 0.782608687877655 0.782608687877655 0.0
v 0.782608687877655 0.739130437374115 0.0
v 0.782608687877655 0.695652186870575 0.0
v 0.782608687877655 0.6521738767623901 0.0
v 0.782608687877655 0.6086956262588501 0.0
v 0.782608687877655 0.5652173757553101 0.0
v 0.782608687877655 0.52173912525177 0.0
v 0.782608687877655 0.47826087474823 0.0
v 0.782608687877655 0.43478262424468994 0.0
v 0.782608687877655 0.3913043439388275 0.0
v 0.782608687877655 0.3478260934352875 0.0
v 0.782608687877655 0.30434784293174744 0.0
v 0.782608687877655 0.260869562625885 0.0
v 0.782608687877655 0.21739131212234497 0.0
v 0.782608687877655 0.17391304671764374 0.0
v 0.782608687877655 0.1304347813129425 0.0
v 0.782608687877655 0.08695652335882187 0.0
v 0.782608687877655 0.043478261679410934 0.0
v 0.782608687877655 0.0 0.0
v 0.739130437374115 1.0 0.0
v 0.739130437374115 0.95652174949646 0.0
v 0.739130437374115 0.9130434989929199 0.0
v 0.739130437374115 0.8695651888847351 0.0
v 0.739130437374115 0.8260869383811951 0.0
v 0.739130437374115 0.782608687877655 0.0
v 0.739130437374115 0.739130437374115 0.0
v 0.739130437374115 0.695652186870575 0.0
v 0.739130437374115 0.6521738767623901 0.0
v 0.739130437374115 0.6086956262588501 0.0
v 0.739130437374115 0.5652173757553101 0.0
v 0.739130437374115 0.52173912525177 0.0
v 0.739130437374115 0.47826087474823 0.0
v 0.739130437374115 0.43478262424468994 0.0
v 0.739130437374115 0.3913043439388275 0.0
v 0.739130437374115 0.3478260934352875 0.0
v 0.739130437374115 0.30434784293174744 0.0
v 0.739130437374115 0.260869562625885 0.0
v 0.739130437374115 0.21739131212234497 0.0
v 0.739130437374115 0.17391304671764374 0.0
v 0.739130437374115 0.1304347813129425 0.0
v 0.739130437374115 0.08695652335882187 0.0
v 0.739130437374115 0.043478261679410934 0.0
v 0.739130437374115 0.0 0.0
v 0.695652186870575 1.0 0.0
v 0.695652186870575 0.95652174949646 0.0
v 0.695652186870575 0.9130434989929199 0.0
v 0.695652186870575 0.8695651888847351 0.0
v 0.695652186870575 0.8260869383811951 0.0
v 0.695652186870575 0.782608687877655 0.0
v 0.695652186870575 0.739130437374115 0.0
v 0.695652186870575 0.695652186870575 0.0
v 0.695652186870575 0.6521738767623901 0.0
v 0.695652186870575 0.6086956262588501 0.0
v 0.695652186870575 0.5652173757553101 0.0
v 0.695652186870575 0.52173912525177 0.0
v 0.695652186870575 0.47826087474823 0.0
v 0.695652186870575 0.43478262424468994 0.0
v 0.695652186870575 0.3913043439388275 0.0
v 0.695652186870575 0.3478260934352875 0.0
v 0.695652186870575 0.30434784293174744 0.0
v 0.695652186870575 0.260869562625885 0.0
v 0.695652186870575 0.21739131212234497 0.0
v 0.695652186870575 0.17391304671764374 0.0
v 0.695652186870575 0.1304347813129425 0.0
v 0.695652186870575 0.08695652335882187 0.0
v 0.695652186870575 0.043478261679410934 0.0
v 0.695652186870575 0.0 0.0
v 0.6521738767623901 1.0 0.0
v 0.6521738767623901 0.95652174949646 0.0
v 0.6521738767623901 0.9130434989929199 0.0
v 0.6521738767623901 0.8695651888847351 0.0
v 0.6521738767623901 0.8260869383811951 0.0
v 0.6521738767623901 0.782608687877655 0.0
v 0.6521738767623901 0.739130437374115 0.0
v 0.6521738767623901 0.695652186870575 0.0
v 0.6521738767623901 0.6521738767623901 0.0
v 0.6521738767623901 0.6086956262588501 0.0
v 0.6521738767623901 0.5652173757553101 0.0
v 0.6521738767623901 0.52173912525177 0.0
v 0.6521738767623901 0.47826087474823 0.0
v 0.6521738767623901 0.43478262424468994 0.0
v 0.6521738767623901 0.3913043439388275 0.0
v 0.6521738767623901 0.3478260934352875 0.0
v 0.6521738767623901 0.30434784293174744 0.0
v 0.6521738767623901 0.260869562625885 0.0
v 0.6521738767623901 0.21739131212234497 0.0
v 0.6521738767623901 0.17391304671764374 0.0
v 0.6521738767623901 0.1304347813129425 0.0
v 0.6521738767623901 0.08695652335882187 0.0
v 0.6521738767623901 0.043478261679410934 0.0
v 0.6521738767623901 0.0 0.0
v 0.6086956262588501 1.0 0.0
v 0.6086956262588501 0.95652174949646 0.0
v 0.6086956262588501 0.9130434989929199 0.0
v 0.6086956262588501 0.8695651888847351 0.0
v 0.6086956262588501 0.8260869383811951 0.0
v 0.6086956262588501 0.782608687877655 0.0
v 0.6086956262588501 0.739130437374115 0.0
v 0.6086956262588501 0.695652186870575 0.0
v 0.6086956262588501 0.6521738767623901 0.0
v 0.6086956262588501 0.6086956262588501 0.0
v 0.6086956262588501 0.5652173757553101 0.0
v 0.6086956262588501 0.52173912525177 0.0
v 0.6086956262588501 0.47826087474823 0.0
v 0.6086956262588501 0.43478262424468994 0.0
v 0.6086956262588501 0.3913043439388275 0.0
v 0.6086956262588501 0.3478260934352875 0.0
v 0.6086956262588501 0.30434784293174744 0.0
v 0.6086956262588501 0.260869562625885 0.0
v 0.6086956262588501 0.21739131212234497 0.0
v 0.6086956262588501 0.17391304671764374 0.0
v 0.6086956262588501 0.1304347813129425 0.0
v 0.6086956262588501 0.08695652335882187 0.0
v 0.6086956262588501 0.043478261679410934 0.0
v 0.6086956262588501 0.0 0.0
v 0.5652173757553101 1.0 0.0
v 0.5652173757553101 0.95652174949646 0.0
v 0.5652173757553101 0.9130434989929199 0.0
v 0.5652173757553101 0.8695651888847351 0.0
v 0.5652173757553101 0.8260869383811951 0.0
v 0.5652173757553101 0.782608687877655 0.0
v 0.5652173757553101 0.739130437374115 0.0
v 0.5652173757553101 0.695652186870575 0.0
v 0.5652173757553101 0.6521738767623901 0.0
v 0.5652173757553101 0.6086956262588501 0.0
v 0.5652173757553101 0.5652173757553101 0.0
v 0.5652173757553101 0.52173912525177 0.0
v 0.5652173757553101 0.47826087474823 0.0
v 0.5652173757553101 0.43478262424468994 0.0
v 0.5652173757553101 0.3913043439388275 0.0
v 0.5652173757553101 0.3478260934352875 0.0
v 0.5652173757553101 0.30434784293174744 0.0
v 0.5652173757553101 0.260869562625885 0.0
v 0.5652173757553101 0.21739131212234497 0.0
v 0.5652173757553101 0.17391304671764374 0.0
v 0.5652173757553101 0.1304347813129425 0.0
v 0.5652173757553101 0.08695652335882187 0.0
v 0.5652173757553101 0.043478261679410934 0.0
v 0.5652173757553101 0.0 0.0
v 0.52173912525177 1.0 0.0
v 0.52173912525177 0.95652174949646 0.0
v 0.52173912525177 0.9130434989929199 0.0
v 0.52173912525177 0.8695651888847351 0.0
v 0.52173912525177 0.8260869383811951 0.0
v 0.52173912525177 0.782608687877655 0.0
v 0.52173912525177 0.739130437374115 0.0
v 0.52173912525177 0.695652186870575 0.0
v 0.52173912525177 0.6521738767623901 0.0
v 0.52173912525177 0.6086956262588501 0.0
v 0.52173912525177 0.5652173757553101 0.0
v 0.52173912525177 0.52173912525177 0.0
v 0.52173912525177 0.47826087474823 0.0
v 0.52173912525177 0.43478262424468994 0.0
v 0.52173912525177 0.3913043439388275 0.0
v 0.52173912525177 0.3478260934352875 0.0
v 0.52173912525177 0.30434784293174744 0.0
v 0.52173912525177 0.260869562625885 0.0
v 0.52173912525177 0.21739131212234497 0.0
v 0.52173912525177 0.17391304671764374 0.0
v 0.52173912525177 0.1304347813129425 0.0
v 0.52173912525177 0.08695652335882187 0.0
v 0.52173912525177 0.043478261679410934 0.0
v 0.52173912525177 0.0 0.0
v 0.47826087474823 1.0 0.0
v 0.47826087474823 0.95652174949646 0.0
v 0.47826087474823 0.9130434989929199 0.0
v 0.47826087474823 0.8695651888847351 0.0
v 0.47826087474823 0.8260869383811951 0.0
v 0.47826087474823 0.782608687877655 0.0
v 0.47826087474823 0.739130437374115 0.0
v 0.47826087474823 0.695652186870575 0.0
v 0.47826087474823 0.6521738767623901 0.0
v 0.47826087474823 0.6086956262588501 0.0
v 0.47826087474823 0.5652173757553101 0.0
v 0.47826087474823 0.52173912525177 0.0
v 0.47826087474823 0.47826087474823 0.0
v 0.47826087474823 0.43478262424468994 0.0
v 0.47826087474823 0.3913043439388275 0.0
v 0.47826087474823 0.3478260934352875 0.0
v 0.47826087474823 0.30434784293174744 0.0
v 0.47826087474823 0.260869562625885 0.0
v 0.47826087474823 0.21739131212234497 0.0
v 0.47826087474823 0.17391304671764374 0.0
v 0.47826087474823 0.1304347813129425 0.0
v 0.47826087474823 0.08695652335882187 0.0
v 0.47826087474823 0.043478261679410934 0.0
v 0.47826087474823 0.0 0.0
v 0.43478262424468994 1.0 0.0
v 0.43478262424468994 0.95652174949646 0.0
v 0.43478262424468994 0.9130434989929199 0.0
v 0.43478262424468994 0.8695651888847351 0.0
v 0.43478262424468994 0.8260869383811951 0.0
v 0.43478262424468994 0.782608687877655 0.0
v 0.43478262424468994 0.739130437374115 0.0
v 0.43478262424468994 0.695652186870575 0.0
v 0.43478262424468994 0.6521738767623901 0.0
v 0.43478262424468994 0.6086956262588501 0.0
v 0.43478262424468994 0.5652173757553101 0.0
v 0.43478262424468994 0.52173912525177 0.0
v 0.43478262424468994 0.47826087474823 0.0
v 0.43478262424468994 0.43478262424468994 0.0
v 0.43478262424468994 0.3913043439388275 0.0
v 0.43478262424468994 0.3478260934352875 0.0
v 0.43478262424468994 0.30434784293174744 0.0
v 0.43478262424468994 0.260869562625885 0.0
v 0.43478262424468994 0.21739131212234497 0.0
v 0.43478262424468994 0.17391304671764374 0.0
v 0.43478262424468994 0.1304347813129425 0.0
v 0.43478262424468994 0.08695652335882187 0.0
v 0.43478262424468994 0.043478261679410934 0.0
v 0.43478262424468994 0.0 0.0
v 0.3913043439388275 1.0 0.0
v 0.3913043439388275 0.95652174949646 0.0
v 0.3913043439388275 0.9130434989929199 0.0
v 0.3913043439388275 0.8695651888847351 0.0
v 0.3913043439388275 0.8260869383811951 0.0
v 0.3913043439388275 0.782608687877655 0.0
v 0.3913043439388275 0.739130437374115 0.0
v 0.3913043439388275 0.695652186870575 0.0
v 0.3913043439388275 0.6521738767623901 0.0
v 0.3913043439388275 0.6086956262588501 0.0
v 0.3913043439388275 0.5652173757553101 0.0
v 0.3913043439388275 0.52173912525177 0.0
v 0.3913043439388275 0.47826087474823 0.0
v 0.3913043439388275 0.43478262424468994 0.0
v 0.3913043439388275 0.3913043439388275 0.0
v 0.3913043439388275 0.3478260934352875 0.0
v 0.3913043439388275 0.30434784293174744 0.0
v 0.3913043439388275 0.260869562625885 0.0
v 0.3913043439388275 0.21739131212234497 0.0
v 0.3913043439388275 0.17391304671764374 0.0
v 0.3913043439388275 0.1304347813129425 0.0
v 0.3913043439388275 0.08695652335882187 0.0
v 0.3913043439388275 0.043478261679410934 0.0
v 0.3913043439388275 0.0 0.0
v 0.3478260934352875 1.0 0.0
v 0.3478260934352875 0.95652174949646 0.0
v 0.3478260934352875 0.9130434989929199 0.0
v 0.3478260934352875 0.8695651888847351 0.0
v 0.3478260934352875 0.8260869383811951 0.0
v 0.3478260934352875 0.782608687877655 0.0
v 0.3478260934352875 0.739130437374115 0.0
v 0.3478260934352875 0.695652186870575 0.0
v 0.3478260934352875 0.6521738767623901 0.0
v 0.3478260934352875 0.6086956262588501 0.0
v 0.3478260934352875 0.5652173757553101 0.0
v 0.3478260934352875 0.52173912525177 0.0
v 0.3478260934352875 0.47826087474823 0.0
v 0.3478260934352875 0.43478262424468994 0.0
v 0.3478260934352875 0.3913043439388275 0.0
v 0.3478260934352875 0.3478260934352875 0.0
v 0.3478260934352875 0.30434784293174744 0.0
v 0.3478260934352875 0.260869562625885 0.0
v 0.3478260934352875 0.21739131212234497 0.0
v 0.3478260934352875 0.17391304671764374 0.0
v 0.3478260934352875 0.1304347813129425 0.0
v 0.3478260934352875 0.08695652335882187 0.0
v 0.3478260934352875 0.043478261679410934 0.0
v 0.3478260934352875 0.0 0.0
v 0.30434784293174744 1.0 0.0
v 0.30434784293174744 0.95652174949646 0.0
v 0.30434784293174744 0.9130434989929199 0.0
v 0.30434784293174744 0.8695651888847351 0.0
v 0.30434784293174744 0.8260869383811951 0.0
v 0.30434784293174744 0.782608687877655 0.0
v 0.30434784293174744 0.739130437374115 0.0
v 0.30434784293174744 0.695652186870575 0.0
v 0.30434784293174744 0.6521738767623901 0.0
v 0.30434784293174744 0.6086956262588501 0.0
v 0.30434784293174744 0.5652173757553101 0.0
v 0.30434784293174744 0.52173912525177 0.0
v 0.30434784293174744 0.47826087474823 0.0
v 0.30434784293174744 0.43478262424468994 0.0
v 0.30434784293174744 0.3913043439388275 0.0
v 0.30434784293174744 0.3478260934352875 0.0
v 0.30434784293174744 0.30434784293174744 0.0
v 0.30434784293174744 0.260869562625885 0.0
v 0.30434784293174744 0.21739131212234497 0.0
v 0.30434784293174744 0.17391304671764374 0.0
v 0.30434784293174744 0.1304347813129425 0.0
v 0.30434784293174744 0.08695652335882187 0.0
v 0.30434784293174744 0.043478261679410934 0.0
v 0.30434784293174744 0.0 0.0
v 0.260869562625885 1.0 0.0
v 0.260869562625885 0.95652174949646 0.0
v 0.260869562625885 0.9130434989929199 0.0
v 0.260869562625885 0.8695651888847351 0.0
v 0.260869562625885 0.8260869383811951 0.0
v 0.260869562625885 0.782608687877655 0.0
v 0.260869562625885 0.739130437374115 0.0
v 0.260869562625885 0.695652186870575 0.0
v 0.260869562625885 0.6521738767623901 0.0
v 0.260869562625885 0.6086956262588501 0.0
v 0.260869562625885 0.5652173757553101 0.0
v 0.260869562625885 0.52173912525177 0.0
v 0.260869562625885 0.47826087474823 0.0
v 0.260869562625885 0.43478262424468994 0.0
v 0.260869562625885 0.3913043439388275 0.0
v 0.260869562625885 0.3478260934352875 0.0
v 0.260869562625885 0.30434784293174744 0.0
v 0.260869562625885 0.260869562625885 0.0
v 0.260869562625885 0.21739131212234497 0.0
v 0.260869562625885 0.17391304671764374 0.0
v 0.260869562625885 0.1304347813129425 0.0
v 0.260869562625885 0.08695652335882187 0.0
v 0.260869562625885 0.043478261679410934 0.0
v 0.260869562625885 0.0 0.0
v 0.21739131212234497 1.0 0.0
v 0.21739131212234497 0.95652174949646 0.0
v 0.21739131212234497 0.9130434989929199 0.0
v 0.21739131212234497 0.8695651888847351 0.0
v 0.21739131212234497 0.8260869383811951 0.0
v 0.21739131212234497 0.782608687877655 0.0
v 0.21739131212234497 0.739130437374115 0.0
v 0.21739131212234497 0.695652186870575 0.0
v 0.21739131212234497 0.6521738767623901 0.0
v 0.21739131212234497 0.6086956262588501 0.0
v 0.21739131212234497 0.5652173757553101 0.0
v 0.21739131212234497 0.52173912525177 0.0
v 0.21739131212234497 0.47826087474823 0.0
v 0.21739131212234497 0.43478262424468994 0.0
v 0.21739131212234497 0.3913043439388275 0.0
v 0.21739131212234497 0.3478260934352875 0.0
v 0.21739131212234497 0.30434784293174744 0.0
v 0.21739131212234497 0.260869562625885 0.0
v 0.21739131212234497 0.21739131212234497 0.0
v 0.21739131212234497 0.17391304671764374 0.0
v 0.21739131212234497 0.1304347813129425 0.0
v 0.21739131212234497 0.08695652335882187 0.0
v 0.21739131212234497 0.043478261679410934 0.0
v 0.21739131212234497 0.0 0.0
v 0.17391304671764374 1.0 0.0
v 0.17391304671764374 0.95652174949646 0.0
v 0.17391304671764374 0.9130434989929199 0.0
v 0.17391304671764374 0.8695651888847351 0.0
v 0.17391304671764374 0.8260869383811951 0.0
v 0.17391304671764374 0.782608687877655 0.0
v 0.17391304671764374 0.739130437374115 0.0
v 0.17391304671764374 0.695652186870575 0.0
v 0.17391304671764374 0.6521738767623901 0.0
v 0.17391304671764374 0.6086956262588501 0.0
v 0.17391304671764374 0.5652173757553101 0.0
v 0.17391304671764374 0.52173912525177 0.0
v 0.17391304671764374 0.47826087474823 0.0
v 0.17391304671764374 0.43478262424468994 0.0
v 0.17391304671764374 0.3913043439388275 0.0
v 0.17391304671764374 0.3478260934352875 0.0
v 0.17391304671764374 0.30434784293174744 0.0
v 0.17391304671764374 0.260869562625885 0.0
v 0.17391304671764374 0.21739131212234497 0.0
v 0.17391304671764374 0.17391304671764374 0.0
v 0.17391304671764374 0.1304347813129425 0.0
v 0.17391304671764374 0.08695652335882187 0.0
v 0.17391304671764374 0.043478261679410934 0.0
v 0.17391304671764374 0.0 0.0
v 0.1304347813129425 1.0 0.0
v 0.1304347813129425 0.95652174949646 0.0
v 0.1304347813129425 0.9130434989929199 0.0
v 0.1304347813129425 0.8695651888847351 0.0
v 0.1304347813129425 0.8260869383811951 0.0
v 0.1304347813129425 0.782608687877655 0.0
v 0.1304347813129425 0.739130437374115 0.0
v 0.1304347813129425 0.695652186870575 0.0
v 0.1304347813129425 0.6521738767623901 0.0
v 0.1304347813129425 0.6086956262588501 0.0
v 0.1304347813129425 0.5652173757553101 0.0
v 0.1304347813129425 0.52173912525177 0.0
v 0.1304347813129425 0.47826087474823 0.0
v 0.1304347813129425 0.43478262424468994 0.0
v 0.1304347813129425 0.3913043439388275 0.0
v 0.1304347813129425 0.3478260934352875 0.0
v 0.1304347813129425 0.30434784293174744 0.0
v 0.1304347813129425 0.260869562625885 0.0
v 0.1304347813129425 0.21739131212234497 0.0
v 0.1304347813129425 0.17391304671764374 0.0
v 0.1304347813129425 0.1304347813129425 0.0
v 0.1304347813129425 0.08695652335882187 0.0
v 0.1304347813129425 0.043478261679410934 0.0
v 0.1304347813129425 0.0 0.0
v 0.08695652335882187 1.0 0.0
v 0.08695652335882187 0.95652174949646 0.0
v 0.08695652335882187 0.9130434989929199 0.0
v 0.08695652335882187 0.8695651888847351 0.0
v 0.08695652335882187 0.8260869383811951 0.0
v 0.08695652335882187 0.782608687877655 0.0
v 0.08695652335882187 0.739130437374115 0.0
v 0.08695652335882187 0.695652186870575 0.0
v 0.08695652335882187 0.6521738767623901 0.0
v 0.08695652335882187 0.6086956262588501 0.0
v 0.08695652335882187 0.5652173757553101 0.0
v 0.08695652335882187 0.52173912525177 0.0
v 0.08695652335882187 0.47826087474823 0.0
v 0.08695652335882187 0.43478262424468994 0.0
v 0.08695652335882187 0.3913043439388275 0.0
v 0.08695652335882187 0.3478260934352875 0.0
v 0.08695652335882187 0.30434784293174744 0.0
v 0.08695652335882187 0.260869562625885 0.0
v 0.08695652335882187 0.21739131212234497 0.0
v 0.08695652335882187 0.17391304671764374 0.0
v 0.08695652335882187 0.1304347813129425 0.0
v 0.08695652335882187 0.08695652335882187 0.0
v 0.08695652335882187 0.043478261679410934 0.0
v 0.08695652335882187 0.0 0.0
v 0.043478261679410934 1.0 0.0
v 0.043478261679410934 0.95652174949646 0.0
v 0.043478261679410934 0.9130434989929199 0.0
v 0.043478261679410934 0.8695651888847351 0.0
v 0.043478261679410934 0.8260869383811951 0.0
v 0.043478261679410934 0.782608687877655 0.0
v 0.043478261679410934 0.739130437374115 0.0
v 0.043478261679410934 0.695652186870575 0.0
v 0.043478261679410934 0.6521738767623901 0.0
v 0.043478261679410934 0.6086956262588501 0.0
v 0.043478261679410934 0.5652173757553101 0.0
v 0.043478261679410934 0.52173912525177 0.0
v 0.043478261679410934 0.47826087474823 0.0
v 0.043478261679410934 0.43478262424468994 0.0
v 0.043478261679410934 0.3913043439388275 0.0
v 0.043478261679410934 0.3478260934352875 0.0
v 0.043478261679410934 0.30434784293174744 0.0
v 0.043478261679410934 0.260869562625885 0.0
v 0.043478261679410934 0.21739131212234497 0.0
v 0.043478261679410934 0.17391304671764374 0.0
v 0.043478261679410934 0.1304347813129425 0.0
v 0.043478261679410934 0.08695652335882187 0.0
v 0.043478261679410934 0.043478261679410934 0.0
v 0.043478261679410934 0.0 0.0
v 0.0 1.0 0.0
v 0.0 0.95652174949646 0.0
v 0.0 0.9130434989929199 0.0
v 0.0 0.8695651888847351 0.0
v 0.0 0.8260869383811951 0.0
v 0.0 0.782608687877655 0.0
v 0.0 0.739130437374115 0.0
v 0.0 0.695652186870575 0.0
v 0.0 0.6521738767623901 0.0
v 0.0 0.6086956262588501 0.0
v 0.0 0.5652173757553101 0.0
v 0.0 0.52173912525177 0.0
v 0.0 0.47826087474823 0.0
v 0.0 0.43478262424468994 0.0
v 0.0 0.3913043439388275 0.0
v 0.0 0.3478260934352875 0.0
v 0.0 0.30434784293174744 0.0
v 0.0 0.260869562625885 0.0
v 0.0 0.21739131212234497 0.0
v 0.0 0.17391304671764374 0.0
v 0.0 0.1304347813129425 0.0
v 0.0 0.08695652335882187 0.0
v 0.0 0.043478261679410934 0.0
v 0.0 0.0 0.0
vt 1.0 1.0
vt 1.0 0.95652174949646
vt 1.0 0.9130434989929199
vt 1.0 0.8695651888847351
vt 1.0 0.8260869383811951
vt 1.0 0.782608687877655
vt 1.0 0.739130437374115
vt 1.0 0.695652186870575
vt 1.0 0.6521738767623901
vt 1.0 0.6086956262588501
vt 1.0 0.5652173757553101
vt 1.0 0.52173912525177
vt 1.0 0.47826087474823
vt 1.0 0.43478262424468994
vt 1.0 0.3913043439388275
vt 1.0 0.3478260934352875
vt 1.0 0.30434784293174744
vt 1.0 0.260869562625885
vt 1.0 0.21739131212234497
vt 1.0 0.17391304671764374
vt 1.0 0.1304347813129425
vt 1.0 0.08695652335882187
vt 1.0 0.043478261679410934
vt 1.0 0.0
vt 0.95652174949646 1.0
vt 0.95652174949646 0.95652174949646
vt 0.95652174949646 0.9130434989929199
vt 0.95652174949646 0.8695651888847351
vt 0.95652174949646 0.8260869383811951
vt 0.95652174949646 0.782608687877655
vt 0.95652174949646 0.739130437374115
vt 0.95652174949646 0.695652186870575
vt 0.95652174949646 0.6521738767623901
vt 0.95652174949646 0.6086956262588501
vt 0.95652174949646 0.5652173757553101
vt 0.95652174949646 0.52173912525177
vt 0.95652174949646 0.47826087474823
vt 0.95652174949646 0.43478262424468994
vt 0.95652174949646 0.3913043439388275
vt 0.95652174949646 0.3478260934352875
vt 0.95652174949646 0.30434784293174744
vt 0.95652174949646 0.260869562625885
vt 0.95652174949646 0.21739131212234497
vt 0.95652174949646 0.17391304671764374
vt 0.95652174949646 0.1304347813129425
vt 0.95652174949646 0.08695652335882187
vt 0.95652174949646 0.043478261679410934
vt 0.95652174949646 0.0
vt 0.9130434989929199 1.0
vt 0.9130434989929199 0.95652174949646
vt 0.9130434989929199 0.9130434989929199
vt 0.9130434989929199 0.8695651888847351
vt 0.9130434989929199 0.8260869383811951
vt 0.9130434989929199 0.782608687877655
vt 0.9130434989929199 0.739130437374115
vt 0.9130434989929199 0.695652186870575
vt 0.9130434989929199 0.6521738767623901
vt 0.9130434989929199 0.6086956262588501
vt 0.9130434989929199 0.5652173757553101
vt 0.9130434989929199 0.52173912525177
vt 0.9130434989929199 0.47826087474823
vt 0.9130434989929199 0.43478262424468994
vt 0.9130434989929199 0.3913043439388275
vt 0.9130434989929199 0.3478260934352875
vt 0.9130434989929199 0.30434784293174744
vt 0.9130434989929199 0.260869562625885
vt 0.9130434989929199 0.21739131212234497
vt 0.9130434989929199 0.17391304671764374
vt 0.9130434989929199 0.1304347813129425
vt 0.9130434989929199 0.08695652335882187
vt 0.9130434989929199 0.043478261679410934
vt 0.9130434989929199 0.0
vt 0.8695651888847351 1.0
vt 0.8695651888847351 0.95652174949646
vt 0.8695651888847351 0.9130434989929199
vt 0.8695651888847351 0.8695651888847351
vt 0.8695651888847351 0.8260869383811951
vt 0.8695651888847351 0.782608687877655
vt 0.8695651888847351 0.739130437374115
vt 0.8695651888847351 0.695652186870575
vt 0.8695651888847351 0.6521738767623901
vt 0.8695651888847351 0.6086956262588501
vt 0.8695651888847351 0.5652173757553101
vt 0.8695651888847351 0.52173912525177
vt 0.8695651888847351 0.47826087474823
vt 0.8695651888847351 0.43478262424468994
vt 0.8695651888847351 0.3913043439388275
vt 0.8695651888847351 0.3478260934352875
vt 0.8695651888847351 0.30434784293174744
vt 0.8695651888847351 0.260869562625885
vt 0.8695651888847351 0.21739131212234497
vt 0.8695651888847351 0.17391304671764374
vt 0.8695651888847351 0.1304347813129425
vt 0.8695651888847351 0.08695652335882187
vt 0.8695651888847351 0.043478261679410934
vt 0.8695651888847351 0.0
vt 0.8260869383811951 1.0
vt 0.8260869383811951 0.95652174949646
vt 0.8260869383811951 0.9130434989929199
vt 0.8260869383811951 0.8695651888847351
vt 0.8260869383811951 0.8260869383811951
vt 0.8260869383811951 0.782608687877655
vt 0.8260869383811951 0.739130437374115
vt 0.8260869383811951 0.695652186870575
vt 0.8260869383811951 0.6521738767623901
vt 0.8260869383811951 0.6086956262588501
vt 0.8260869383811951 0.5652173757553101
vt 0.8260869383811951 0.52173912525177
vt 0.8260869383811951 0.47826087474823
vt 0.8260869383811951 0.43478262424468994
vt 0.8260869383811951 0.3913043439388275
vt 0.8260869383811951 0.3478260934352875
vt 0.8260869383811951 0.30434784293174744
vt 0.8260869383811951 0.260869562625885
vt 0.8260869383811951 0.21739131212234497
vt 0.8260869383811951 0.17391304671764374
vt 0.8260869383811951 0.1304347813129425
vt 0.8260869383811951 0.08695652335882187
vt 0.8260869383811951 0.043478261679410934
vt 0.8260869383811951 0.0
vt 0.782608687877655 1.0
vt 0.782608687877655 0.95652174949646
vt 0.782608687877655 0.9130434989929199
vt 0.782608687877655 0.8695651888847351
vt 0.782608687877655 0.8260869383811951
vt 0.782608687877655 0.782608687877655
vt 0.782608687877655 0.739130437374115
vt 0.782608687877655 0.695652186870575
vt 0.782608687877655 0.6521738767623901
vt 0.782608687877655 0.6086956262588501
vt 0.782608687877655 0.5652173757553101
vt 0.782608687877655 0.52173912525177
vt 0.782608687877655 0.47826087474823
vt 0.782608687877655 0.43478262424468994
vt 0.782608687877655 0.3913043439388275
vt 0.782608687877655 0.3478260934352875
vt 0.782608687877655 0.30434784293174744
vt 0.782608687877655 0.260869562625885
vt 0.782608687877655 0.21739131212234497
vt 0.782608687877655 0.17391304671764374
vt 0.782608687877655 0.1304347813129425
vt 0.782608687877655 0.08695652335882187
vt 0.782608687877655 0.043478261679410934
vt 0.782608687877655 0.0
vt 0.739130437374115 1.0
vt 0.739130437374115 0.95652174949646
vt 0.739130437374115 0.9130434989929199
vt 0.739130437374115 0.8695651888847351
vt 0.739130437374115 0.8260869383811951
vt 0.739130437374115 0.782608687877655
vt 0.739130437374115 0.739130437374115
vt 0.739130437374115 0.695652186870575
vt 0.739130437374115 0.6521738767623901
vt 0.739130437374115 0.6086956262588501
vt 0.739130437374115 0.5652173757553101
vt 0.739130437374115 0.52173912525177
vt 0.739130437374115 0.47826087474823
vt 0.739130437374115 0.43478262424468994
vt 0.739130437374115 0.3913043439388275
vt 0.739130437374115 0.3478260934352875
vt 0.739130437374115 0.30434784293174744
vt 0.739130437374115 0.260869562625885
vt 0.739130437374115 0.21739131212234497
vt 0.739130437374115 0.17391304671764374
vt 0.739130437374115 0.1304347813129425
vt 0.739130437374115 0.08695652335882187
vt 0.739130437374115 0.043478261679410934
vt 0.739130437374115 0.0
vt 0.695652186870575 1.0
vt 0.695652186870575 0.95652174949646
vt 0.695652186870575 0.9130434989929199
vt 0.695652186870575 0.8695651888847351
vt 0.695652186870575 0.8260869383811951
vt 0.695652186870575 0.782608687877655
vt 0.695652186870575 0.739130437374115
vt 0.695652186870575 0.695652186870575
vt 0.695652186870575 0.6521738767623901
vt 0.695652186870575 0.6086956262588501
vt 0.695652186870575 0.5652173757553101
vt 0.695652186870575 0.52173912525177
vt 0.695652186870575 0.47826087474823
vt 0.695652186870575 0.43478262424468994
vt 0.695652186870575 0.3913043439388275
vt 0.695652186870575 0.3478260934352875
vt 0.695652186870575 0.30434784293174744
vt 0.695652186870575 0.260869562625885
vt 0.695652186870575 0.21739131212234497
vt 0.695652186870575 0.17391304671764374
vt 0.695652186870575 0.1304347813129425
vt 0.695652186870575 0.08695652335882187
vt 0.695652186870575 0.043478261679410934
vt 0.695652186870575 0.0
vt 0.6521738767623901 1.0
vt 0.6521738767623901 0.95652174949646
vt 0.6521738767623901 0.9130434989929199
vt 0.6521738767623901 0.8695651888847351
vt 0.6521738767623901 0.8260869383811951
vt 0.6521738767623901 0.782608687877655
vt 0.6521738767623901 0.739130437374115
vt 0.6521738767623901 0.695652186870575
vt 0.6521738767623901 0.6521738767623901
vt 0.6521738767623901 0.6086956262588501
vt 0.6521738767623901 0.5652173757553101
vt 0.6521738767623901 0.52173912525177
vt 0.6521738767623901 0.47826087474823
vt 0.6521738767623901 0.43478262424468994
vt 0.6521738767623901 0.3913043439388275
vt 0.6521738767623901 0.3478260934352875
vt 0.6521738767623901 0.30434784293174744
vt 0.6521738767623901 0.260869562625885
vt 0.6521738767623901 0.21739131212234497
vt 0.6521738767623901 0.17391304671764374
vt 0.6521738767623901 0.1304347813129425
vt 0.6521738767623901 0.08695652335882187
vt 0.6521738767623901 0.043478261679410934
vt 0.6521738767623901 0.0
vt 0.6086956262588501 1.0
vt 0.6086956262588501 0.95652174949646
vt 0.6086956262588501 0.9130434989929199
vt 0.6086956262588501 0.8695651888847351
vt 0.6086956262588501 0.8260869383811951
vt 0.6086956262588501 0.782608687877655
vt 0.6086956262588501 0.739130437374115
vt 0.6086956262588501 0.695652186870575
vt 0.6086956262588501 0.6521738767623901
vt 0.6086956262588501 0.6086956262588501
vt 0.6086956262588501 0.5652173757553101
vt 0.6086956262588501 0.52173912525177
vt 0.6086956262588501 0.47826087474823
vt 0.6086956262588501 0.43478262424468994
vt 0.6086956262588501 0.3913043439388275
vt 0.6086956262588501 0.3478260934352875
vt 0.6086956262588501 0.30434784293174744
vt 0.6086956262588501 0.260869562625885
vt 0.6086956262588501 0.21739131212234497
vt 0.6086956262588501 0.17391304671764374
vt 0.6086956262588501 0.1304347813129425
vt 0.6086956262588501 0.08695652335882187
vt 0.6086956262588501 0.043478261679410934
vt 0.6086956262588501 0.0
vt 0.5652173757553101 1.0
vt 0.5652173757553101 0.95652174949646
vt 0.5652173757553101 0.9130434989929199
vt 0.5652173757553101 0.8695651888847351
vt 0.5652173757553101 0.8260869383811951
vt 0.5652173757553101 0.782608687877655
vt 0.5652173757553101 0.739130437374115
vt 0.5652173757553101 0.695652186870575
vt 0.5652173757553101 0.6521738767623901
vt 0.5652173757553101 0.6086956262588501
vt 0.5652173757553101 0.5652173757553101
vt 0.5652173757553101 0.52173912525177
vt 0.5652173757553101 0.47826087474823
vt 0.5652173757553101 0.43478262424468994
vt 0.5652173757553101 0.3913043439388275
vt 0.5652173757553101 0.3478260934352875
vt 0.5652173757553101 0.30434784293174744
vt 0.5652173757553101 0.260869562625885
vt 0.5652173757553101 0.21739131212234497
vt 0.5652173757553101 0.17391304671764374
vt 0.5652173757553101 0.1304347813129425
vt 0.5652173757553101 0.08695652335882187
vt 0.5652173757553101 0.043478261679410934
vt 0.5652173757553101 0.0
vt 0.52173912525177 1.0
vt 0.52173912525177 0.95652174949646
vt 0.52173912525177 0.9130434989929199
vt 0.52173912525177 0.8695651888847351
vt 0.52173912525177 0.8260869383811951
vt 0.52173912525177 0.782608687877655
vt 0.52173912525177 0.739130437374115
vt 0.52173912525177 0.695652186870575
vt 0.52173912525177 0.6521738767623901
vt 0.52173912525177 0.6086956262588501
vt 0.52173912525177 0.5652173757553101
vt 0.52173912525177 0.52173912525177
vt 0.52173912525177 0.47826087474823
vt 0.52173912525177 0.43478262424468994
vt 0.52173912525177 0.3913043439388275
vt 0.52173912525177 0.3478260934352875
vt 0.52173912525177 0.30434784293174744
vt 0.52173912525177 0.260869562625885
vt 0.52173912525177 0.21739131212234497
vt 0.52173912525177 0.17391304671764374
vt 0.52173912525177 0.1304347813129425
vt 0.52173912525177 0.08695652335882187
vt 0.52173912525177 0.043478261679410934
vt 0.52173912525177 0.0
vt 0.47826087474823 1.0
vt 0.47826087474823 0.95652174949646
vt 0.47826087474823 0.9130434989929199
vt 0.47826087474823 0.8695651888847351
vt 0.47826087474823 0.8260869383811951
vt 0.47826087474823 0.782608687877655
vt 0.47826087474823 0.739130437374115
vt 0.47826087474823 0.695652186870575
vt 0.47826087474823 0.6521738767623901
vt 0.47826087474823 0.6086956262588501
vt 0.47826087474823 0.5652173757553101
vt 0.47826087474823 0.52173912525177
vt 0.47826087474823 0.47826087474823
vt 0.47826087474823 0.43478262424468994
vt 0.47826087474823 0.3913043439388275
vt 0.47826087474823 0.3478260934352875
vt 0.47826087474823 0.30434784293174744
vt 0.47826087474823 0.260869562625885
vt 0.47826087474823 0.21739131212234497
vt 0.47826087474823 0.17391304671764374
vt 0.47826087474823 0.1304347813129425
vt 0.47826087474823 0.08695652335882187
vt 0.47826087474823 0.043478261679410934
vt 0.47826087474823 0.0
vt 0.43478262424468994 1.0
vt 0.43478262424468994 0.95652174949646
vt 0.43478262424468994 0.9130434989929199
vt 0.43478262424468994 0.8695651888847351
vt 0.43478262424468994 0.8260869383811951
vt 0.43478262424468994 0.782608687877655
vt 0.43478262424468994 0.739130437374115
vt 0.43478262424468994 0.695652186870575
vt 0.43478262424468994 0.6521738767623901
vt 0.43478262424468994 0.6086956262588501
vt 0.43478262424468994 0.5652173757553101
vt 0.43478262424468994 0.52173912525177
vt 0.43478262424468994 0.47826087474823
vt 0.43478262424468994 0.43478262424468994
vt 0.43478262424468994 0.3913043439388275
vt 0.43478262424468994 0.3478260934352875
vt 0.43478262424468994 0.30434784293174744
vt 0.43478262424468994 0.260869562625885
vt 0.43478262424468994 0.21739131212234497
vt 0.43478262424468994 0.17391304671764374
vt 0.43478262424468994 0.1304347813129425
vt 0.43478262424468994 0.08695652335882187
vt 0.43478262424468994 0.043478261679410934
vt 0.43478262424468994 0.0
vt 0.3913043439388275 1.0
vt 0.3913043439388275 0.95652174949646
vt 0.3913043439388275 0.9130434989929199
vt 0.3913043439388275 0.8695651888847351
vt 0.3913043439388275 0.8260869383811951
vt 0.3913043439388275 0.782608687877655
vt 0.3913043439388275 0.739130437374115
vt 0.3913043439388275 0.695652186870575
vt 0.3913043439388275 0.6521738767623901
vt 0.3913043439388275 0.6086956262588501
vt 0.3913043439388275 0.5652173757553101
vt 0.3913043439388275 0.52173912525177
vt 0.3913043439388275 0.47826087474823
vt 0.3913043439388275 0.43478262424468994
vt 0.3913043439388275 0.3913043439388275
vt 0.3913043439388275 0.3478260934352875
vt 0.3913043439388275 0.30434784293174744
vt 0.3913043439388275 0.260869562625885
vt 0.3913043439388275 0.21739131212234497
vt 0.3913043439388275 0.17391304671764374
vt 0.3913043439388275 0.1304347813129425
vt 0.3913043439388275 0.08695652335882187
vt 0.3913043439388275 0.043478261679410934
vt 0.3913043439388275 0.0
vt 0.3478260934352875 1.0
vt 0.3478260934352875 0.95652174949646
vt 0.3478260934352875 0.9130434989929199
vt 0.3478260934352875 0.8695651888847351
vt 0.3478260934352875 0.8260869383811951
vt 0.3478260934352875 0.782608687877655
vt 0.3478260934352875 0.739130437374115
vt 0.3478260934352875 0.695652186870575
vt 0.3478260934352875 0.6521738767623901
vt 0.3478260934352875 0.6086956262588501
vt 0.3478260934352875 0.5652173757553101
vt 0.3478260934352875 0.52173912525177
vt 0.3478260934352875 0.47826087474823
vt 0.3478260934352875 0.43478262424468994
vt 0.3478260934352875 0.3913043439388275
vt 0.3478260934352875 0.3478260934352875
vt 0.3478260934352875 0.30434784293174744
vt 0.3478260934352875 0.260869562625885
vt 0.3478260934352875 0.21739131212234497
vt 0.3478260934352875 0.17391304671764374
vt 0.3478260934352875 0.1304347813129425
vt 0.3478260934352875 0.08695652335882187
vt 0.3478260934352875 0.043478261679410934
vt 0.3478260934352875 0.0
vt 0.30434784293174744 1.0
vt 0.30434784293174744 0.95652174949646
vt 0.30434784293174744 0.9130434989929199
vt 0.30434784293174744 0.8695651888847351
vt 0.30434784293174744 0.8260869383811951
vt 0.30434784293174744 0.782608687877655
vt 0.30434784293174744 0.739130437374115
vt 0.30434784293174744 0.695652186870575
vt 0.30434784293174744 0.6521738767623901
vt 0.30434784293174744 0.6086956262588501
vt 0.30434784293174744 0.5652173757553101
vt 0.30434784293174744 0.52173912525177
vt 0.30434784293174744 0.47826087474823
vt 0.30434784293174744 0.43478262424468994
vt 0.30434784293174744 0.3913043439388275
vt 0.30434784293174744 0.3478260934352875
vt 0.30434784293174744 0.30434784293174744
vt 0.30434784293174744 0.260869562625885
vt 0.30434784293174744 0.21739131212234497
vt 0.30434784293174744 0.17391304671764374
vt 0.30434784293174744 0.1304347813129425
vt 0.30434784293174744 0.08695652335882187
vt 0.30434784293174744 0.043478261679410934
vt 0.30434784293174744 0.0
vt 0.260869562625885 1.0
vt 0.260869562625885 0.95652174949646
vt 0.260869562625885 0.9130434989929199
vt 0.260869562625885 0.8695651888847351
vt 0.260869562625885 0.8260869383811951
vt 0.260869562625885 0.782608687877655
vt 0.260869562625885 0.739130437374115
vt 0.260869562625885 0.695652186870575
vt 0.260869562625885 0.6521738767623901
vt 0.260869562625885 0.6086956262588501
vt 0.260869562625885 0.5652173757553101
vt 0.260869562625885 0.52173912525177
vt 0.260869562625885 0.47826087474823
vt 0.260869562625885 0.43478262424468994
vt 0.260869562625885 0.3913043439388275
vt 0.260869562625885 0.3478260934352875
vt 0.260869562625885 0.30434784293174744
vt 0.260869562625885 0.260869562625885
vt 0.260869562625885 0.21739131212234497
vt 0.260869562625885 0.17391304671764374
vt 0.260869562625885 0.1304347813129425
vt 0.260869562625885 0.08695652335882187
vt 0.260869562625885 0.043478261679410934
vt 0.260869562625885 0.0
vt 0.21739131212234497 1.0
vt 0.21739131212234497 0.95652174949646
vt 0.21739131212234497 0.9130434989929199
vt 0.21739131212234497 0.8695651888847351
vt 0.21739131212234497 0.8260869383811951
vt 0.21739131212234497 0.782608687877655
vt 0.21739131212234497 0.739130437374115
vt 0.21739131212234497 0.695652186870575
vt 0.21739131212234497 0.6521738767623901
vt 0.21739131212234497 0.6086956262588501
vt 0.21739131212234497 0.5652173757553101
vt 0.21739131212234497 0.52173912525177
vt 0.21739131212234497 0.47826087474823
vt 0.21739131212234497 0.43478262424468994
vt 0.21739131212234497 0.3913043439388275
vt 0.21739131212234497 0.3478260934352875
vt 0.21739131212234497 0.30434784293174744
vt 0.21739131212234497 0.260869562625885
vt 0.21739131212234497 0.21739131212234497
vt 0.21739131212234497 0.17391304671764374
vt 0.21739131212234497 0.1304347813129425
vt 0.21739131212234497 0.08695652335882187
vt 0.21739131212234497 0.043478261679410934
vt 0.21739131212234497 0.0
vt 0.17391304671764374 1.0
vt 0.17391304671764374 0.95652174949646
vt 0.17391304671764374 0.9130434989929199
vt 0.17391304671764374 0.8695651888847351
vt 0.17391304671764374 0.8260869383811951
vt 0.17391304671764374 0.782608687877655
vt 0.17391304671764374 0.739130437374115
vt 0.17391304671764374 0.695652186870575
vt 0.17391304671764374 0.6521738767623901
vt 0.17391304671764374 0.6086956262588501
vt 0.17391304671764374 0.5652173757553101
vt 0.17391304671764374 0.52173912525177
vt 0.17391304671764374 0.47826087474823
vt 0.17391304671764374 0.43478262424468994
vt 0.17391304671764374 0.3913043439388275
vt 0.17391304671764374 0.3478260934352875
vt 0.17391304671764374 0.30434784293174744
vt 0.17391304671764374 0.260869562625885
vt 0.17391304671764374 0.21739131212234497
vt 0.17391304671764374 0.17391304671764374
vt 0.17391304671764374 0.1304347813129425
vt 0.17391304671764374 0.08695652335882187
vt 0.17391304671764374 0.043478261679410934
vt 0.17391304671764374 0.0
vt 0.1304347813129425 1.0
vt 0.1304347813129425 0.95652174949646
vt 0.1304347813129425 0.9130434989929199
vt 0.1304347813129425 0.8695651888847351
vt 0.1304347813129425 0.8260869383811951
vt 0.1304347813129425 0.782608687877655
vt 0.1304347813129425 0.739130437374115
vt 0.1304347813129425 0.695652186870575
vt 0.1304347813129425 0.6521738767623901
vt 0.1304347813129425 0.6086956262588501
vt 0.1304347813129425 0.5652173757553101
vt 0.1304347813129425 0.52173912525177
vt 0.1304347813129425 0.47826087474823
vt 0.1304347813129425 0.43478262424468994
vt 0.1304347813129425 0.3913043439388275
vt 0.1304347813129425 0.3478260934352875
vt 0.1304347813129425 0.30434784293174744
vt 0.1304347813129425 0.260869562625885
vt 0.1304347813129425 0.21739131212234497
vt 0.1304347813129425 0.17391304671764374
vt 0.1304347813129425 0.1304347813129425
vt 0.1304347813129425 0.08695652335882187
vt 0.1304347813129425 0.043478261679410934
vt 0.1304347813129425 0.0
vt 0.08695652335882187 1.0
vt 0.08695652335882187 0.95652174949646
vt 0.08695652335882187 0.9130434989929199
vt 0.08695652335882187 0.8695651888847351
vt 0.08695652335882187 0.8260869383811951
vt 0.08695652335882187 0.782608687877655
vt 0.08695652335882187 0.739130437374115
vt 0.08695652335882187 0.695652186870575
vt 0.08695652335882187 0.6521738767623901
vt 0.08695652335882187 0.6086956262588501
vt 0.08695652335882187 0.5652173757553101
vt 0.08695652335882187 0.52173912525177
vt 0.08695652335882187 0.47826087474823
vt 0.08695652335882187 0.43478262424468994
vt 0.08695652335882187 0.3913043439388275
vt 0.08695652335882187 0.3478260934352875
vt 0.08695652335882187 0.30434784293174744
vt 0.08695652335882187 0.260869562625885
vt 0.08695652335882187 0.21739131212234497
vt 0.08695652335882187 0.17391304671764374
vt 0.08695652335882187 0.1304347813129425
vt 0.08695652335882187 0.08695652335882187
vt 0.08695652335882187 0.043478261679410934
vt 0.08695652335882187 0.0
vt 0.043478261679410934 1.0
vt 0.043478261679410934 0.95652174949646
vt 0.043478261679410934 0.9130434989929199
vt 0.043478261679410934 0.8695651888847351
vt 0.043478261679410934 0.8260869383811951
vt 0.043478261679410934 0.782608687877655
vt 0.043478261679410934 0.739130437374115
vt 0.043478261679410934 0.695652186870575
vt 0.043478261679410934 0.6521738767623901
vt 0.043478261679410934 0.6086956262588501
vt 0.043478261679410934 0.5652173757553101
vt 0.043478261679410934 0.52173912525177
vt 0.043478261679410934 0.47826087474823
vt 0.043478261679410934 0.43478262424468994
vt 0.043478261679410934 0.3913043439388275
vt 0.043478261679410934 0.3478260934352875
vt 0.043478261679410934 0.30434784293174744
vt 0.043478261679410934 0.260869562625885
vt 0.043478261679410934 0.21739131212234497
vt 0.043478261679410934 0.17391304671764374
vt 0.043478261679410934 0.1304347813129425
vt 0.043478261679410934 0.08695652335882187
vt 0.043478261679410934 0.043478261679410934
vt 0.043478261679410934 0.0
vt 0.0 1.0
vt 0.0 0.95652174949646
vt 0.0 0.9130434989929199
vt 0.0 0.8695651888847351
vt 0.0 0.8260869383811951
vt 0.0 0.782608687877655
vt 0.0 0.739130437374115
vt 0.0 0.695652186870575
vt 0.0 0.6521738767623901
vt 0.0 0.6086956262588501
vt 0.0 0.5652173757553101
vt 0.0 0.52173912525177
vt 0.0 0.47826087474823
vt 0.0 0.43478262424468994
vt 0.0 0.3913043439388275
vt 0.0 0.3478260934352875
vt 0.0 0.30434784293174744
vt 0.0 0.260869562625885
vt 0.0 0.21739131212234497
vt 0.0 0.17391304671764374
vt 0.0 0.1304347813129425
vt 0.0 0.08695652335882187
vt 0.0 0.043478261679410934
vt 0.0 0.0
f 1/1 25/25 26/26 2/2
f 2/2 26/26 27/27 3/3
f 3/3 27/27 28/28 4/4
f 4/4 28/28 29/29 5/5
f 5/5 29/29 30/30 6/6
f 6/6 30/30 31/31 7/7
f 7/7 31/31 32/32 8/8
f 8/8 32/32 33/33 9/9
f 9/9 33/33 34/34 10/10
f 10/10 34/34 35/35 11/11
f 11/11 35/35 36/36 12/12
f 12/12 36/36 37/37 13/13
f 13/13 37/37 38/38 14/14
f 14/14 38/38 39/39 15/15
f 15/15 39/39 40/40 16/16
f 16/16 40/40 41/41 17/17
f 17/17 41/41 42/42 18/18
f 18/18 42/42 43/43 19/19
f 19/19 43/43 44/44 20/20
f 20/20 44/44 45/45 21/21
f 21/21 45/45 46/46 22/22
f 22/22 46/46 47/47 23/23
f 23/23 47/47 48/48 24/24
f 25/25 49/49 50/50 26/26
f 26/26 50/50 51/51 27/27
f 27/27 51/51 52/52 28/28
f 28/28 52/52 53/53 29/29
f 29/29 53/53 54/54 30/30
f 30/30 54/54 55/55 31/31
f 31/31 55/55 56/56 32/32
f 32/32 56/56 57/57 33/33
f 33/33 57/57 58/58 34/34
f 34/34 58/58 59/59 35/35
f 35/35 59/59 60/60 36/36
f 36/36 60/60 61/61 37/37
f 37/37 61/61 62/62 38/38
f 38/38 62/62 63/63 39/39
f 39/39 63/63 64/64 40/40
f 40/40 64/64 65/65 41/41
f 41/41 65/65 66/66 42/42
f 42/42 66/66 67/67 43/43
f 43/43 67/67 68/68 44/44
f 44/44 68/68 69/69 45/45
f 45/45 69/69 70/70 46/46
f 46/46 70/70 71/71 47/47
f 47/47 71/71 72/72 48/48
f 49/49 73/73 74/74 50/50
f 50/50 74/74 75/75 51/51
f 51/51 75/75 76/76 52/52
f 52/52 76/76 77/77 53/53
f 53/53 77/77 78/78 54/54
f 54/54 78/78 79/79 55/55
f 55/55 79/79 80/80 56/56
f 56/56 80/80 81/81 57/57
f 57/57 81/81 82/82 58/58
f 58/58 82/82 83/83 59/59
f 59/59 83/83 84/84 60/60
f 60/60 84/84 85/85 61/61
f 61/61 85/85 86/86 62/62
f 62/62 86/86 87/87 63/63
f 63/63 87/87 88/88 64/64
f 64/64 88/88 89/89 65/65
f 65/65 89/89 90/90 66/66
f 66/66 90/90 91/91 67/67
f 67/67 91/91 92/92 68/68
f 68/68 92/92 93/93 69/69
f 69/69 93/93 94/94 70/70
f 70/70 94/94 95/95 71/71
f 71/71 95/95 96/96 72/72
f 73/73 97/97 98/98 74/74
f 74/74 98/98 99/99 75/75
f 75/75 99/99 100/100 76/76
f 76/76 100/100 101/101 77/77
f 77/77 101/101 102/102 78/78
f 78/78 102/102 103/103 79/79
f 79/79 103/103 104/104 80/80
f 80/80 104/104 105/105 81/81
f 81/81 105/105 106/106 82/82
f 82/82 106/106 107/107 83/83
f 83/83 107/107 108/108 84/84
f 84/84 108/108 109/109 85/85
f 85/85 109/109 110/110 86/86
f 86/86 110/110 111/111 87/87
f 87/87 111/111 112/112 88/88
f 88/88 112/112 113/113 89/89
f 89/89 113/113 114/114 90/90
f 90/90 114/114 115/115 91/91
f 91/91 115/115 116/116 92/92
f 92/92 116/116 117/117 93/93
f 93/93 117/117 118/118 94/94
f 94/94 118/118 119/119 95/95
f 95/95 119/119 120/120 96/96
f 97/97 121/121 122/122 98/98
f 98/98 122/122 123/123 99/99
f 99/99 123/123 124/124 100/100
f 100/100 124/124 125/125 101/101
f 101/101 125/125 126/126 102/102
f 102/102 126/126 127/127 103/103
f 103/103 127/127 128/128 104/104
f 104/104 128/128 129/129 105/105
f 105/105 129/129 130/130 106/106
f 106/106 130/130 131/131 107/107
f 107/107 131/131 132/132 108/108
f 108/108 132/132 133/133 109/109
f 109/109 133/133 134/134 110/110
f 110/110 134/134 135/135 111/111
f 111/111 135/135 136/136 112/112
f 112/112 136/136 137/137 113/113
f 113/113 137/137 138/138 114/114
f 114/114 138/138 139/139 115/115
f 115/115 139/139 140/140 116/116
f 116/116 140/140 141/141 117/117
f 117/117 141/141 142/142 118/118
f 118/118 142/142 143/143 119/119
f 119/119 143/143 144/144 120/120
f 121/121 145/145 146/146 122/122
f 122/122 146/146 147/147 123/123
f 123/123 147/147 148/148 124/124
f 124/124 148/148 149/149 125/125
f 125/125 149/149 150/150 126/126
f 126/126 150/150 151/151 127/127
f 127/127 151/151 152/152 128/128
f 128/128 152/152 153/153 129/129
f 129/129 153/153 154/154 130/130
f 130/130 154/154 155/155 131/131
f 131/131 155/155 156/156 132/132
f 132/132 156/156 157/157 133/133
f 133/133 157/157 158/158 134/134
f 134/134 158/158 159/159 135/135
f 135/135 159/159 160/160 136/136
f 136/136 160/160 161/161 137/137
f 137/137 161/161 162/162 138/138
f 138/138 162/162 163/163 139/139
f 139/139 163/163 164/164 140/140
f 140/140 164/164 165/165 141/141
f 141/141 165/165 166/166 142/142
f 142/142 166/166 167/167 143/143
f 143/143 167/167 168/168 144/144
f 145/145 169/169 170/170 146/146
f 146/146 170/170 171/171 147/147
f 147/147 171/171 172/172 148/148
f 148/148 172/172 173/173 149/149
f 149/149 173/173 174/174 150/150
f 150/150 174/174 175/175 151/151
f 151/151 175/175 176/176 152/152
f 152/152 176/176 177/177 153/153
f 153/153 177/177 178/178 154/154
f 154/154 178/178 179/179 155/155
f 155/155 179/179 180/180 156/156
f 156/156 180/180 181/181 157/157
f 157/157 181/181 182/182 158/158
f 158/158 182/182 183/183 159/159
f 159/159 183/183 184/184 160/160
f 160/160 184/184 185/185 161/161
f 161/161 185/185 186/186 162/162
f 162/162 186/186 187/187 163/163
f 163/163 187/187 188/188 164/164
f 164/164 188/188 189/189 165/165
f 165/165 189/189 190/190 166/166
f 166/166 190/190 191/191 167/167
f 167/167 191/191 192/192 168/168
f 169/169 193/193 194/194 170/170
f 170/170 194/194 195/195 171/171
f 171/171 195/195 196/196 172/172
f 172/172 196/196 197/197 173/173
f 173/173 197/197 198/198 174/174
f 174/174 198/198 199/199 175/175
f 175/175 199/199 200/200 176/176
f 176/176 200/200 201/201 177/177
f 177/177 201/201 202/202 178/178
f 178/178 202/202 203/203 179/179
f 179/179 203/203 204/204 180/180
f 180/180 204/204 205/205 181/181
f 181/181 205/205 206/206 182/182
f 182/182 206/206 207/207 183/183
f 183/183 207/207 208/208 184/184
f 184/184 208/208 209/209 185/185
f 185/185 209/209 210/210 186/186
f 186/186 210/210 211/211 187/187
f 187/187 211/211 212/212 188/188
f 188/188 212/212 213/213 189/189
f 189/189 213/213 214/214 190/190
f 190/190 214/214 215/215 191/191
f 191/191 215/215 216/216 192/192
f 193/193 217/217 218/218 194/194
f 194/194 218/218 219/219 195/195
f 195/195 219/219 220/220 196/196
f 196/196 220/220 221/221 197/197
f 197/197 221/221 222/222 198/198
f 198/198 222/222 223/223 199/199
f 199/199 223/223 224/224 200/200
f 200/200 224/224 225/225 201/201
f 201/201 225/225 226/226 202/202
f 202/202 226/226 227/227 203/203
f 203/203 227/227 228/228 204/204
f 204/204 228/228 229/229 205/205
f 205/205 229/229 230/230 206/206
f 206/206 230/230 231/231 207/207
f 207/207 231/231 232/232 208/208
f 208/208 232/232 233/233 209/209
f 209/209 233/233 234/234 210/210
f 210/210 234/234 235/235 211/211
f 211/211 235/235 236/236 212/212
f 212/212 236/236 237/237 213/213
f 213/213 237/237 238/238 214/214
f 214/214 238/238 239/239 215/215
f 215/215 239/239 240/240 216/216
f 217/217 241/241 242/242 218/218
f 218/218 242/242 243/243 219/219
f 219/219 243/243 244/244 220/220
f 220/220 244/244 245/245 221/221
f 221/221 245/245 246/246 222/222
f 222/222 246/246 247/247 223/223
f 223/223 247/247 248/248 224/224
f 224/224 248/248 249/249 225/225
f 225/225 249/249 250/250 226/226
f 226/226 250/250 251/251 227/227
f 227/227 251/251 252/252 228/228
f 228/228 252/252 253/253 229/229
f 229/229 253/253 254/254 230/230
f 230/230 254/254 255/255 231/231
f 231/231 255/255 256/256 232/232
f 232/232 256/256 257/257 233/233
f 233/233 257/257 258/258 234/234
f 234/234 258/258 259/259 235/235
f 235/235 259/259 260/260 236/236
f 236/236 260/260 261/261 237/237
f 237/237 261/261 262/262 238/238
f 238/238 262/262 263/263 239/239
f 239/239 263/263 264/264 240/240
f 241/241 265/265 266/266 242/242
f 242/242 266/266 267/267 243/243
f 243/243 267/267 268/268 244/244
f 244/244 268/268 269/269 245/245
f 245/245 269/269 270/270 246/246
f 246/246 270/270 271/271 247/247
f 247/247 271/271 272/272 248/248
f 248/248 272/272 273/273 249/249
f 249/249 273/273 274/274 250/250
f 250/250 274/274 275/275 251/251
f 251/251 275/275 276/276 252/252
f 252/252 276/276 277/277 253/253
f 253/253 277/277 278/278 254/254
f 254/254 278/278 279/279 255/255
f 255/255 279/279 280/280 256/256
f 256/256 280/280 281/281 257/257
f 257/257 281/281 282/282 258/258
f 258/258 282/282 283/283 259/259
f 259/259 283/283 284/284 260/260
f 260/260 284/284 285/285 261/261
f 261/261 285/285 286/286 262/262
f 262/262 286/286 287/287 263/263
f 263/263 287/287 288/288 264/264
f 265/265 289/289 290/290 266/266
f 266/266 290/290 291/291 267/267
f 267/267 291/291 292/292 268/268
f 268/268 292/292 293/293 269/269
f 269/269 293/293 294/294 270/270
f 270/270 294/294 295/295 271/271
f 271/271 295/295 296/296 272/272
f 272/272 296/296 297/297 273/273
f 273/273 297/297 298/298 274/274
f 274/274 298/298 299/299 275/275
f 275/275 299/299 300/300 276/276
f 276/276 300/300 301/301 277/277
f 277/277 301/301 302/302 278/278
f 278/278 302/302 303/303 279/279
f 279/279 303/303 304/304 280/280
f 280/280 304/304 305/305 281/281
f 281/281 305/305 306/306 282/282
f 282/282 306/306 307/307 283/283
f 283/283 307/307 308/308 284/284
f 284/284 308/308 309/309 285/285
f 285/285 309/309 310/310 286/286
f 286/286 310/310 311/311 287/287
f 287/287 311/311 312/312 288/288
f 289/289 313/313 314/314 290/290
f 290/290 314/314 315/315 291/291
f 291/291 315/315 316/316 292/292
f 292/292 316/316 317/317 293/293
f 293/293 317/317 318/318 294/294
f 294/294 318/318 319/319 295/295
f 295/295 319/319 320/320 296/296
f 296/296 320/320 321/321 297/297
f 297/297 321/321 322/322 298/298
f 298/298 322/322 323/323 299/299
f 299/299 323/323 324/324 300/300
f 300/300 324/324 325/325 301/301
f 301/301 325/325 326/326 302/302
f 302/302 326/326 327/327 303/303
f 303/303 327/327 328/328 304/304
f 304/304 328/328 329/329 305/305
f 305/305 329/329 330/330 306/306
f 306/306 330/330 331/331 307/307
f 307/307 331/331 332/332 308/308
f 308/308 332/332 333/333 309/309
f 309/309 333/333 334/334 310/310
f 310/310 334/334 335/335 311/311
f 311/311 335/335 336/336 312/312
f 313/313 337/337 338/338 314/314
f 314/314 338/338 339/339 315/315
f 315/315 339/339 340/340 316/316
f 316/316 340/340 341/341 317/317
f 317/317 341/341 342/342 318/318
f 318/318 342/342 343/343 319/319
f 319/319 343/343 344/344 320/320
f 320/320 344/344 345/345 321/321
f 321/321 345/345 346/346 322/322
f 322/322 346/346 347/347 323/323
f 323/323 347/347 348/348 324/324
f 324/324 348/348 349/349 325/325
f 325/325 349/349 350/350 326/326
f 326/326 350/350 351/351 327/327
f 327/327 351/351 352/352 328/328
f 328/328 352/352 353/353 329/329
f 329/329 353/353 354/354 330/330
f 330/330 354/354 355/355 331/331
f 331/331 355/355 356/356 332/332
f 332/332 356/356 357/357 333/333
f 333/333 357/357 358/358 334/334
f 334/334 358/358 359/359 335/335
f 335/335 359/359 360/360 336/336
f 337/337 361/361 362/362 338/338
f 338/338 362/362 363/363 339/339
f 339/339 363/363 364/364 340/340
f 340/340 364/364 365/365 341/341
f 341/341 365/365 366/366 342/342
f 342/342 366/366 367/367 343/343
f 343/343 367/367 368/368 344/344
f 344/344 368/368 369/369 345/345
f 345/345 369/369 370/370 346/346
f 346/346 370/370 371/371 347/347
f 347/347 371/371 372/372 348/348
f 348/348 372/372 373/373 349/349
f 349/349 373/373 374/374 350/350
f 350/350 374/374 375/375 351/351
f 351/351 375/375 376/376 352/352
f 352/352 376/376 377/377 353/353
f 353/353 377/377 378/378 354/354
f 354/354 378/378 379/379 355/355
f 355/355 379/379 380/380 356/356
f 356/356 380/380 381/381 357/357
f 357/357 381/381 382/382 358/358
f 358/358 382/382 383/383 359/359
f 359/359 383/383 384/384 360/360
f 361/361 385/385 386/386 362/362
f 362/362 386/386 387/387 363/363
f 363/363 387/387 388/388 364/364
f 364/364 388/388 389/389 365/365
f 365/365 389/389 390/390 366/366
f 366/366 390/390 391/391 367/367
f 367/367 391/391 392/392 368/368
f 368/368 392/392 393/393 369/369
f 369/369 393/393 394/394 370/370
f 370/370 394/394 395/395 371/371
f 371/371 395/395 396/396 372/372
f 372/372 396/396 397/397 373/373
f 373/373 397/397 398/398 374/374
f 374/374 398/398 399/399 375/375
f 375/375 399/399 400/400 376/376
f 376/376 400/400 401/401 377/377
f 377/377 401/401 402/402 378/378
f 378/378 402/402 403/403 379/379
f 379/379 403/403 404/404 380/380
f 380/380 404/404 405/405 381/381
f 381/381 405/405 406/406 382/382
f 382/382 406/406 407/407 383/383
f 383/383 407/407 408/408 384/384
f 385/385 409/409 410/410 386/386
f 386/386 410/410 411/411 387/387
f 387/387 411/411 412/412 388/388
f 388/388 412/412 413/413 389/389
f 389/389 413/413 414/414 390/390
f 390/390 414/414 415/415 391/391
f 391/391 415/415 416/416 392/392
f 392/392 416/416 417/417 393/393
f 393/393 417/417 418/418 394/394
f 394/394 418/418 419/419 395/395
f 395/395 419/419 420/420 396/396
f 396/396 420/420 421/421 397/397
f 397/397 421/421 422/422 398/398
f 398/398 422/422 423/423 399/399
f 399/399 423/423 424/424 400/400
f 400/400 424/424 425/425 401/401
f 401/401 425/425 426/426 402/402
f 402/402 426/426 427/427 403/403
f 403/403 427/427 428/428 404/404
f 404/404 428/428 429/429 405/405
f 405/405 429/429 430/430 406/406
f 406/406 430/430 431/431 407/407
f 407/407 431/431 432/432 408/408
f 409/409 433/433 434/434 410/410
f 410/410 434/434 435/435 411/411
f 411/411 435/435 436/436 412/412
f 412/412 436/436 437/437 413/413
f 413/413 437/437 438/438 414/414
f 414/414 438/438 439/439 415/415
f 415/415 439/439 440/440 416/416
f 416/416 440/440 441/441 417/417
f 417/417 441/441 442/442 418/418
f 418/418 442/442 443/443 419/419
f 419/419 443/443 444/444 420/420
f 420/420 444/444 445/445 421/421
f 421/421 445/445 446/446 422/422
f 422/422 446/446 447/447 423/423
f 423/423 447/447 448/448 424/424
f 424/424 448/448 449/449 425/425
f 425/425 449/449 450/450 426/426
f 426/426 450/450 451/451 427/427
f 427/427 451/451 452/452 428/428
f 428/428 452/452 453/453 429/429
f 429/429 453/453 454/454 430/430
f 430/430 454/454 455/455 431/431
f 431/431 455/455 456/456 432/432
f 433/433 457/457 458/458 434/434
f 434/434 458/458 459/459 435/435
f 435/435 459/459 460/460 436/436
f 436/436 460/460 461/461 437/437
f 437/437 461/461 462/462 438/438
f 438/438 462/462 463/463 439/439
f 439/439 463/463 464/464 440/440
f 440/440 464/464 465/465 441/441
f 441/441 465/465 466/466 442/442
f 442/442 466/466 467/467 443/443
f 443/443 467/467 468/468 444/444
f 444/444 468/468 469/469 445/445
f 445/445 469/469 470/470 446/446
f 446/446 470/470 471/471 447/447
f 447/447 471/471 472/472 448/448
f 448/448 472/472 473/473 449/449
f 449/449 473/473 474/474 450/450
f 450/450 474/474 475/475 451/451
f 451/451 475/475 476/476 452/452
f 452/452 476/476 477/477 453/453
f 453/453 477/477 478/478 454/454
f 454/454 478/478 479/479 455/455
f 455/455 479/479 480/480 456/456
f 457/457 481/481 482/482 458/458
f 458/458 482/482 483/483 459/459
f 459/459 483/483 484/484 460/460
f 460/460 484/484 485/485 461/461
f 461/461 485/485 486/486 462/462
f 462/462 486/486 487/487 463/463
f 463/463 487/487 488/488 464/464
f 464/464 488/488 489/489 465/465
f 465/465 489/489 490/490 466/466
f 466/466 490/490 491/491 467/467
f 467/467 491/491 492/492 468/468
f 468/468 492/492 493/493 469/469
f 469/469 493/493 494/494 470/470
f 470/470 494/494 495/495 471/471
f 471/471 495/495 496/496 472/472
f 472/472 496/496 497/497 473/473
f 473/473 497/497 498/498 474/474
f 474/474 498/498 499/499 475/475
f 475/475 499/499 500/500 476/476
f 476/476 500/500 501/501 477/477
f 477/477 501/501 502/502 478/478
f 478/478 502/502 503/503 479/479
f 479/479 503/503 504/504 480/480
f 481/481 505/505 506/506 482/482
f 482/482 506/506 507/507 483/483
f 483/483 507/507 508/508 484/484
f 484/484 508/508 509/509 485/485
f 485/485 509/509 510/510 486/486
f 486/486 510/510 511/511 487/487
f 487/487 511/511 512/512 488/488
f 488/488 512/512 513/513 489/489
f 489/489 513/513 514/514 490/490
f 490/490 514/514 515/515 491/491
f 491/491 515/515 516/516 492/492
f 492/492 516/516 517/517 493/493
f 493/493 517/517 518/518 494/494
f 494/494 518/518 519/519 495/495
f 495/495 519/519 520/520 496/496
f 496/496 520/520 521/521 497/497
f 497/497 521/521 522/522 498/498
f 498/498 522/522 523/523 499/499
f 499/499 523/523 524/524 500/500
f 500/500 524/524 525/525 501/501
f 501/501 525/525 526/526 502/502
f 502/502 526/526 527/527 503/503
f 503/503 527/527 528/528 504/504
f 505/505 529/529 530/530 506/506
f 506/506 530/530 531/531 507/507
f 507/507 531/531 532/532 508/508
f 508/508 532/532 533/533 509/509
f 509/509 533/533 534/534 510/510
f 510/510 534/534 535/535 511/511
f 511/511 535/535 536/536 512/512
f 512/512 536/536 537/537 513/513
f 513/513 537/537 538/538 514/514
f 514/514 538/538 539/539 515/515
f 515/515 539/539 540/540 516/516
f 516/516 540/540 541/541 517/517
f 517/517 541/541 542/542 518/518
f 518/518 542/542 543/543 519/519
f 519/519 543/543 544/544 520/520
f 520/520 544/544 545/545 521/521
f 521/521 545/545 546/546 522/522
f 522/522 546/546 547/547 523/523
f 523/523 547/547 548/548 524/524
f 524/524 548/548 549/549 525/525
f 525/525 549/549 550/550 526/526
f 526/526 550/550 551/551 527/527
f 527/527 551/551 552/552 528/528
f 529/529 553/553 554/554 530/530
f 530/530 554/554 555/555 531/531
f 531/531 555/555 556/556 532/532
f 532/532 556/556 557/557 533/533
f 533/533 557/557 558/558 534/534
f 534/534 558/558 559/559 535/535
f 535/535 559/559 560/560 536/536
f 536/536 560/560 561/561 537/537
f 537/537 561/561 562/562 538/538
f 538/538 562/562 563/563 539/539
f 539/539 563/563 564/564 540/540
f 540/540 564/564 565/565 541/541
f 541/541 565/565 566/566 542/542
f 542/542 566/566 567/567 543/543
f 543/543 567/567 568/568 544/544
f 544/544 568/568 569/569 545/545
f 545/545 569/569 570/570 546/546
f 546/546 570/570 571/571 547/547
f 547/547 571/571 572/572 548/548
f 548/548 572/572 573/573 549/549
f 549/549 573/573 574/574 550/550
f 550/550 574/574 575/575 551/551
f 551/551 575/575 576/576 552/552
